<?xml version="1.0" standalone="no"?>
<!DOCTYPE svg PUBLIC "-//W3C//DTD SVG 20010904//EN"
 "http://www.w3.org/TR/2001/REC-SVG-20010904/DTD/svg10.dtd">
<svg version="1.0" xmlns="http://www.w3.org/2000/svg"
 width="500.000000pt" height="500.000000pt" viewBox="0 0 500.000000 500.000000"
 preserveAspectRatio="xMidYMid meet">
<metadata>
Created by potrace 1.14, written by Peter Selinger 2001-2017
</metadata>
<g transform="translate(0.000000,500.000000) scale(0.100000,-0.100000)"
fill="#000000" stroke="none">
<path d="M2405 3394 c-231 -34 -380 -108 -536 -263 -65 -65 -111 -122 -143
-176 l-46 -80 0 -368 0 -368 26 -52 c116 -229 362 -413 622 -463 87 -17 231
-18 321 -3 268 43 518 226 640 467 l31 61 0 353 c0 402 4 376 -92 514 -120
175 -317 308 -529 359 -66 15 -241 27 -294 19z m-456 -861 l31 -48 0 36 c0 19
-5 40 -12 47 -9 9 -4 12 22 12 26 0 31 -3 22 -12 -7 -7 -12 -38 -12 -70 0 -73
-16 -76 -59 -10 l-31 47 0 -42 c0 -24 5 -43 13 -46 6 -3 -3 -6 -20 -6 -31 -1
-32 0 -23 25 14 35 12 88 -2 102 -9 9 -6 12 14 12 20 0 33 -11 57 -47z m195
31 c23 -22 20 -80 -4 -104 -24 -24 -72 -26 -94 -4 -21 20 -20 83 1 106 20 22
76 24 97 2z m150 0 c23 -22 20 -80 -4 -104 -24 -24 -72 -26 -94 -4 -21 20 -20
83 1 106 20 22 76 24 97 2z m130 10 c19 -7 21 -37 4 -64 -10 -16 -9 -23 12
-45 l23 -25 -25 0 c-17 0 -28 8 -36 25 -12 26 -32 34 -32 12 0 -7 5 -18 12
-25 9 -9 5 -12 -17 -12 l-30 0 0 70 0 70 37 0 c20 0 43 -3 52 -6z m176 -14 c0
-11 -4 -20 -10 -20 -5 0 -10 5 -10 10 0 6 -9 10 -20 10 -28 0 -25 -16 8 -37
28 -18 42 -33 42 -45 0 -18 -35 -38 -66 -38 -30 0 -34 3 -34 25 0 14 5 25 10
25 6 0 10 -7 10 -15 0 -8 9 -15 20 -15 30 0 24 23 -10 42 -51 29 -34 78 27 78
26 0 33 -4 33 -20z m82 8 c-22 -22 -14 -48 14 -48 23 0 26 3 22 30 -4 27 -2
30 23 30 26 0 28 -2 19 -26 -14 -35 -12 -88 2 -102 9 -9 5 -12 -18 -12 -28 0
-30 2 -26 30 4 27 1 30 -22 30 -21 0 -26 -5 -26 -24 0 -13 6 -27 13 -29 6 -3
-5 -6 -27 -6 -33 -1 -37 1 -26 14 7 9 11 36 8 70 l-3 55 30 0 c22 0 26 -3 17
-12z m205 -50 c23 -79 45 -84 55 -13 4 31 3 54 -4 62 -8 10 -4 13 16 13 15 0
29 -6 31 -12 2 -7 10 -26 16 -43 l11 -30 15 43 c12 35 19 42 41 42 20 0 23 -3
14 -12 -13 -13 -5 -95 11 -115 7 -10 2 -13 -19 -13 -28 0 -29 1 -27 48 l2 47
-16 -47 c-19 -55 -29 -60 -43 -20 -24 64 -30 69 -27 20 l2 -48 -60 0 c-39 0
-55 3 -46 9 17 11 7 41 -14 41 -21 0 -31 -30 -14 -41 10 -6 4 -9 -18 -9 -33 0
-41 8 -24 26 5 5 16 33 26 62 24 75 47 72 72 -10z m278 -8 l0 -70 -30 0 c-22
0 -26 3 -17 12 16 16 16 100 0 116 -9 9 -5 12 18 12 l29 0 0 -70z"/>
<path d="M2064 2535 c-10 -42 3 -75 31 -75 30 0 43 39 26 76 -14 32 -49 32
-57 -1z"/>
<path d="M2214 2535 c-10 -42 3 -75 31 -75 30 0 43 39 26 76 -14 32 -49 32
-57 -1z"/>
<path d="M2372 2538 c2 -13 10 -23 18 -23 8 0 16 10 18 23 3 17 -2 22 -18 22
-16 0 -21 -5 -18 -22z"/>
<path d="M2840 2543 c0 -6 -3 -18 -6 -27 -4 -11 -1 -16 10 -16 9 0 16 6 16 13
0 16 -20 46 -20 30z"/>
<path d="M1656 2808 c-10 -39 -7 -602 4 -618 6 -10 10 97 10 313 0 180 -2 327
-4 327 -2 0 -6 -10 -10 -22z"/>
<path d="M3331 2505 c-1 -210 3 -315 9 -305 12 19 12 577 0 605 -5 12 -9 -112
-9 -300z"/>
<path d="M1619 2673 c-17 -86 -15 -281 4 -353 14 -52 15 -44 16 183 1 130 -1
237 -3 237 -2 0 -10 -30 -17 -67z"/>
<path d="M3362 2500 c0 -171 2 -218 10 -195 14 40 15 351 1 390 -9 23 -11 -21
-11 -195z"/>
</g>
</svg>
